<?xml version="1.0" encoding="UTF-8"?>
<svg width="24px" height="24px" viewBox="0 0 24 24" version="1.1" xmlns="http://www.w3.org/2000/svg" xmlns:xlink="http://www.w3.org/1999/xlink">
    <!-- Generator: Sketch 43.2 (39069) - http://www.bohemiancoding.com/sketch -->
    <title>instagram</title>
    <desc>Created with Sketch.</desc>
    <defs></defs>
    <g id="Page-1" stroke="none" stroke-width="1" fill="none" fill-rule="evenodd">
        <g id="Home" transform="translate(-88.000000, -1724.000000)" fill-rule="nonzero" fill="#FFFFFF">
            <g id="footer" transform="translate(-3.000000, 1540.000000)">
                <g id="social" transform="translate(91.000000, 182.211915)">
                    <g id="instagram" transform="translate(0.000000, 1.848444)">
                        <g id="Group">
                            <path d="M11.5527746,2.08466268 C14.6378172,2.08466268 14.9992448,2.09757081 16.2190629,2.14920332 C17.34207,2.20083583 17.9552061,2.38800369 18.3618121,2.54935529 C18.9039535,2.75588534 19.2847433,3.00759383 19.6913493,3.41419987 C20.0979554,3.8208059 20.3432098,4.20159568 20.5561939,4.74373706 C20.7175455,5.15034309 20.9047134,5.76347917 20.9563459,6.88648631 C21.0144325,8.10630441 21.0208865,8.467732 21.0208865,11.5527746 C21.0208865,14.6378172 21.0079784,14.9992448 20.9563459,16.2190629 C20.9047134,17.34207 20.7175455,17.9552061 20.5561939,18.3618121 C20.3496639,18.9039535 20.0979554,19.2847433 19.6913493,19.6913493 C19.2847433,20.0979554 18.9039535,20.3432098 18.3618121,20.5561939 C17.9552061,20.7175455 17.34207,20.9047134 16.2190629,20.9563459 C14.9992448,21.0144325 14.6378172,21.0208865 11.5527746,21.0208865 C8.467732,21.0208865 8.10630441,21.0079784 6.88648631,20.9563459 C5.76347917,20.9047134 5.15034309,20.7175455 4.74373706,20.5561939 C4.20159568,20.3496639 3.8208059,20.0979554 3.41419987,19.6913493 C3.00759383,19.2847433 2.7623394,18.9039535 2.54935529,18.3618121 C2.38800369,17.9552061 2.20083583,17.34207 2.14920332,16.2190629 C2.09111674,14.9992448 2.08466268,14.6378172 2.08466268,11.5527746 C2.08466268,8.467732 2.09757081,8.10630441 2.14920332,6.88648631 C2.20083583,5.76347917 2.38800369,5.15034309 2.54935529,4.74373706 C2.75588534,4.20159568 3.00759383,3.8208059 3.41419987,3.41419987 C3.8208059,3.00759383 4.20159568,2.7623394 4.74373706,2.54935529 C5.15034309,2.38800369 5.76347917,2.20083583 6.88648631,2.14920332 C8.10630441,2.09757081 8.467732,2.08466268 11.5527746,2.08466268 L11.5527746,2.08466268 Z M11.5527746,0.00645406402 C8.41609948,0.00645406402 8.02240158,0.0193621921 6.78967535,0.0774487683 C5.56340319,0.135535344 4.7179208,0.329157265 3.98861157,0.613136082 C3.22703201,0.910023027 2.58807967,1.30372093 1.94267327,1.94267327 C1.30372093,2.58162561 0.903568963,3.22703201 0.613136082,3.98861157 C0.329157265,4.72437486 0.135535344,5.56340319 0.0774487683,6.78967535 C0.0193621921,8.02240158 0.00645406402,8.41609948 0.00645406402,11.5527746 C0.00645406402,14.6894497 0.0193621921,15.0831476 0.0774487683,16.3158738 C0.135535344,17.542146 0.329157265,18.3876284 0.613136082,19.1169376 C0.910023027,19.8785172 1.30372093,20.5174695 1.94267327,21.1628759 C2.58162561,21.8018283 3.22703201,22.2019802 3.98861157,22.4924131 C4.72437486,22.7763919 5.56340319,22.9700139 6.78967535,23.0281004 C8.02240158,23.086187 8.41609948,23.0990951 11.5527746,23.0990951 C14.6894497,23.0990951 15.0831476,23.086187 16.3158738,23.0281004 C17.542146,22.9700139 18.3876284,22.7763919 19.1169376,22.4924131 C19.8785172,22.1955262 20.5174695,21.8018283 21.1628759,21.1628759 C21.8018283,20.5239236 22.2019802,19.8785172 22.4924131,19.1169376 C22.7763919,18.3811743 22.9700139,17.542146 23.0281004,16.3158738 C23.086187,15.0831476 23.0990951,14.6894497 23.0990951,11.5527746 C23.0990951,8.41609948 23.086187,8.02240158 23.0281004,6.78967535 C22.9700139,5.56340319 22.7763919,4.7179208 22.4924131,3.98861157 C22.1955262,3.22703201 21.8018283,2.58807967 21.1628759,1.94267327 C20.5239236,1.30372093 19.8785172,0.903568963 19.1169376,0.613136082 C18.3811743,0.329157265 17.542146,0.135535344 16.3158738,0.0774487683 C15.0831476,0.0193621921 14.6894497,0.00645406402 11.5527746,0.00645406402 L11.5527746,0.00645406402 Z" id="Shape"></path>
                            <path d="M11.5527746,5.62148976 C8.28056414,5.62148976 5.62148976,8.27411008 5.62148976,11.5527746 C5.62148976,14.8314391 8.27411008,17.4840594 11.5527746,17.4840594 C14.8314391,17.4840594 17.4840594,14.8314391 17.4840594,11.5527746 C17.4840594,8.27411008 14.8249851,5.62148976 11.5527746,5.62148976 Z M11.5527746,15.3993968 C9.42938754,15.3993968 7.70615244,13.6761617 7.70615244,11.5527746 C7.70615244,9.42938754 9.42938754,7.70615244 11.5527746,7.70615244 C13.6761617,7.70615244 15.3993968,9.42938754 15.3993968,11.5527746 C15.3993968,13.6761617 13.6761617,15.3993968 11.5527746,15.3993968 Z" id="Shape"></path>
                            <circle id="Oval" cx="17.7164057" cy="5.38914346" r="1.38762376"></circle>
                        </g>
                    </g>
                </g>
            </g>
        </g>
    </g>
</svg>