<?xml version="1.0" encoding="UTF-8"?>
<svg width="276px" height="173px" viewBox="0 0 276 173" version="1.1" xmlns="http://www.w3.org/2000/svg" xmlns:xlink="http://www.w3.org/1999/xlink">
    <!-- Generator: Sketch 43.2 (39069) - http://www.bohemiancoding.com/sketch -->
    <title>logo__masthead</title>
    <desc>Created with Sketch.</desc>
    <defs></defs>
    <g id="Page-1" stroke="none" stroke-width="1" fill="none" fill-rule="evenodd">
        <g id="Home" transform="translate(-374.000000, -168.000000)">
            <g id="masthead" transform="translate(-3.000000, 140.000000)">
                <g id="logo__masthead" transform="translate(377.000000, 28.000000)">
                    <path d="M6.6131399,124.732587 L6.6131399,133.613285 L10.1403196,133.613285 C12.0794311,133.613285 14.1087189,132.022028 14.1087189,129.150665 C14.1087189,126.410024 12.0794311,124.732587 10.1403196,124.732587 L6.6131399,124.732587 Z M6.6131399,149.565877 L0,149.565877 L0,119.518235 L11.2417581,119.518235 C16.0932405,119.518235 20.4133271,123.452481 20.4133271,129.150665 C20.4133271,135.24973 16.0932405,138.829896 11.2417581,138.829896 L6.6131399,138.829896 L6.6131399,149.565877 L6.6131399,149.565877 Z" id="Fill-6" fill="#FFFFFF"></path>
                    <path d="M30.333037,124.732587 L30.333037,133.613285 L33.8602167,133.613285 C35.7993282,133.613285 37.8266836,132.022028 37.8266836,129.150665 C37.8266836,126.410024 35.7993282,124.732587 33.8602167,124.732587 L30.333037,124.732587 Z M30.333037,149.565877 L23.7176427,149.565877 L23.7176427,119.518235 L34.9616552,119.518235 C39.8134597,119.518235 44.1312919,123.452481 44.1312919,129.150665 C44.1312919,134.233972 41.0904198,137.590459 37.2991525,138.518423 L45.896492,149.565877 L37.5178299,149.565877 L30.3755487,138.829896 L30.333037,138.829896 L30.333037,149.565877 L30.333037,149.565877 Z" id="Fill-8" fill="#FFFFFF"></path>
                    <polyline id="Fill-4" fill="#ABACAA" points="149.11996 72.5942341 160.568158 52.7103019 149.11996 32.8212053 126.207463 32.8212053 114.745095 52.7103019 126.207463 72.5942341 149.11996 72.5942341"></polyline>
                    <polygon id="Fill-1" fill="#FFFFFF" points="187.343097 33.9250792 198.16618 52.7103019 167.913013 105.226619 144.685543 105.226619 133.862782 86.3952401 157.067709 86.3952401"></polygon>
                    <polygon id="Fill-2" fill="#FFFFFF" points="96.5446285 19.0518308 107.412799 0.193984859 167.913013 0.193984859 179.530613 20.3596954 168.69336 39.212377 157.067709 19.0240725"></polygon>
                    <polyline id="Fill-3" fill="#FFFFFF" points="98.84992 52.7103019 129.072491 105.226619 107.412799 105.226619 77.1531915 52.7103019 88.7260253 32.6143096 110.432738 32.6020444 98.84992 52.7103019"></polyline>
                    <polygon id="Fill-9" fill="#FFFFFF" points="48.0095149 149.565877 54.6245871 149.565877 54.6245871 119.518235 48.0095149 119.518235"></polygon>
                    <polyline id="Fill-10" fill="#FFFFFF" points="90.0258516 149.565877 86.4989939 128.843388 80.6356052 149.565877 74.1535429 149.565877 68.2882218 128.843388 64.7629744 149.565877 57.4880052 149.565877 63.3082382 119.518235 71.1551825 119.518235 77.4169571 140.595449 83.6313891 119.518235 91.4809098 119.518235 97.3008208 149.565877 90.0258516 149.565877"></polyline>
                    <polyline id="Fill-11" fill="#FFFFFF" points="117.536694 149.565877 100.164239 149.565877 100.164239 119.518235 117.536694 119.518235 117.536694 125.529507 106.777057 125.529507 106.777057 131.491394 117.09483 131.491394 117.09483 137.502665 106.777057 137.502665 106.777057 143.557188 117.536694 143.557188 117.536694 149.565877"></polyline>
                    <polygon id="Fill-12" fill="#ABACAA" points="140.459497 149.565877 133.84668 149.565877 133.84668 119.518235 151.21688 119.518235 151.21688 125.529507 140.459497 125.529507 140.459497 131.491394 150.775017 131.491394 150.775017 137.502665 140.459497 137.502665"></polygon>
                    <path d="M170.396081,125.660229 C165.765208,125.660229 161.575555,129.859146 161.575555,134.497998 C161.575555,139.136851 165.765208,143.378696 170.396081,143.378696 C175.024699,143.378696 179.211776,139.136851 179.211776,134.497998 C179.211776,129.859146 175.024699,125.660229 170.396081,125.660229 Z M170.396081,150.008395 C162.105019,150.008395 154.96467,142.848062 154.96467,134.541249 C154.96467,126.234114 162.105019,119.077977 170.396081,119.077977 C178.682634,119.077977 185.82717,126.234114 185.82717,134.541249 C185.82717,142.848062 178.682634,150.008395 170.396081,150.008395 L170.396081,150.008395 Z" id="Fill-13" fill="#ABACAA"></path>
                    <path d="M219.022659,139.358271 C216.995304,145.543515 211.175071,150.008395 204.341321,150.008395 C195.832225,150.008395 188.910876,143.069482 188.910876,134.541249 C188.910876,126.012694 195.832225,119.077977 204.341321,119.077977 C211.175071,119.077977 216.950538,123.495409 218.978215,129.638048 L211.616934,129.638048 C210.380231,126.942917 207.382515,125.263221 204.341321,125.263221 C199.490483,125.263221 195.611294,129.462138 195.611294,134.541249 C195.611294,139.667808 199.490483,143.820891 204.341321,143.820891 C207.427281,143.820891 210.425319,142.008537 211.659768,139.358271 L219.022659,139.358271" id="Fill-14" fill="#ABACAA"></path>
                    <path d="M246.884867,119.518235 L246.884867,137.85513 C246.884867,145.853052 242.301337,150.008395 234.496904,150.008395 C226.694726,150.008395 222.108619,145.853052 222.108619,137.85513 L222.108619,119.518235 L228.719505,119.518235 L228.719505,136.884238 C228.719505,141.037644 230.000652,143.378696 234.496904,143.378696 C239.037922,143.378696 240.272371,141.037644 240.272371,136.884238 L240.272371,119.518235 L246.884867,119.518235" id="Fill-15" fill="#ABACAA"></path>
                    <path d="M93.8393409,161.354734 L91.9936262,166.55682 L95.6844114,166.55682 L93.8393409,161.354734 Z M97.6789169,172.144294 L96.6264312,169.198694 L91.0722182,169.198694 L90.0216648,172.144294 L86.5679144,172.144294 L92.4883074,157.528939 L95.2125964,157.528939 L101.130735,172.144294 L97.6789169,172.144294 L97.6789169,172.144294 Z" id="Fill-21" fill="#FFFFFF"></path>
                    <path d="M268.487876,141.344921 C268.487876,135.514079 251.160187,139.270155 251.160187,128.179772 C251.160187,121.992591 256.892176,119.077977 262.359112,119.077977 C268.532642,119.077977 274.087177,121.816359 274.307787,128.665219 L267.915579,128.665219 C267.561959,125.529507 265.753281,124.511812 262.446711,124.511812 C260.592945,124.511812 257.993937,125.396525 257.993937,127.647202 C257.993937,132.994857 275.319372,129.150665 275.319372,140.595449 C275.319372,147.665406 269.01734,150.272421 262.888253,150.272421 C256.275113,150.272421 250.23427,147.001468 250.189504,139.667808 L256.892176,139.667808 C257.06802,143.245715 259.888282,144.881837 263.154273,144.881837 C265.223818,144.881837 268.487876,144.040375 268.487876,141.344921" id="Fill-16" fill="#ABACAA"></path>
                    <path d="M49.7940385,164.877447 C49.7940385,167.35148 51.7247765,169.436576 54.0400518,169.436576 C55.4545307,169.436576 57.2570896,168.983729 58.0496744,166.771785 L54.340854,166.771785 L54.340854,164.341003 L61.5237146,164.341003 L61.5237146,164.836778 C61.5237146,168.983729 58.1991094,172.359259 54.0400518,172.359259 C49.9225397,172.359259 46.5322346,168.963717 46.5322346,164.836778 C46.5322346,160.707902 49.9225397,157.311715 54.0400518,157.311715 C57.2570896,157.311715 60.1527135,159.419404 61.1604331,162.450861 L57.6206931,162.450861 C56.9137757,160.904469 55.4545307,160.322838 54.0400518,160.322838 C51.7247765,160.322838 49.7940385,162.40761 49.7940385,164.877447" id="Fill-18" fill="#FFFFFF"></path>
                    <path d="M74.8298648,160.515209 C72.5777129,160.515209 70.5403737,162.559312 70.5403737,164.816121 C70.5403737,167.073253 72.5777129,169.133817 74.8298648,169.133817 C77.0816946,169.133817 79.1193559,167.073253 79.1193559,164.816121 C79.1193559,162.559312 77.0816946,160.515209 74.8298648,160.515209 Z M74.8298648,172.359259 C70.7976981,172.359259 67.3236579,168.875278 67.3236579,164.836778 C67.3236579,160.795696 70.7976981,157.311715 74.8298648,157.311715 C78.8613874,157.311715 82.3357496,160.795696 82.3357496,164.836778 C82.3357496,168.875278 78.8613874,172.359259 74.8298648,172.359259 L74.8298648,172.359259 Z" id="Fill-19" fill="#FFFFFF"></path>
                    <polyline id="Fill-22" fill="#FFFFFF" points="106.821823 157.528939 110.038861 157.528939 110.038861 169.221611 115.272304 169.221611 115.272304 172.144294 106.821823 172.144294 106.821823 157.528939"></polyline>
                    <polyline id="Fill-23" fill="#FFFFFF" points="124.820037 172.144294 121.605253 172.144294 121.605253 157.528939 124.820037 157.528939 124.820037 164.062775 129.43223 157.528939 133.550064 157.528939 127.952695 164.836778 133.764555 172.144294 129.43223 172.144294 124.820037 165.611104 124.820037 172.144294"></polyline>
                    <polyline id="Fill-24" fill="#FFFFFF" points="147.583099 172.144294 139.133262 172.144294 139.133262 157.528939 147.583099 157.528939 147.583099 160.4513 142.349978 160.4513 142.349978 163.354295 147.368609 163.354295 147.368609 166.274396 142.349978 166.274396 142.349978 169.221611 147.583099 169.221611 147.583099 172.144294"></polyline>
                    <polyline id="Fill-25" fill="#FFFFFF" points="162.90018 172.144294 154.451631 172.144294 154.451631 157.528939 162.90018 157.528939 162.90018 160.4513 157.668347 160.4513 157.668347 163.354295 162.686977 163.354295 162.686977 166.274396 157.668347 166.274396 157.668347 169.221611 162.90018 169.221611 162.90018 172.144294"></polyline>
                    <path d="M172.98736,160.064299 L172.98736,164.383932 L174.701675,164.383932 C175.645627,164.383932 176.632413,163.611865 176.632413,162.214916 C176.632413,160.881553 175.645627,160.064299 174.701675,160.064299 L172.98736,160.064299 Z M172.98736,172.144294 L169.770322,172.144294 L169.770322,157.528939 L175.23919,157.528939 C177.599553,157.528939 179.70066,159.441352 179.70066,162.214916 C179.70066,165.180528 177.599553,166.921551 175.23919,166.921551 L172.98736,166.921551 L172.98736,172.144294 L172.98736,172.144294 Z" id="Fill-26" fill="#FFFFFF"></path>
                    <polygon id="Fill-27" fill="#FFFFFF" points="185.604306 172.144294 188.820378 172.144294 188.820378 157.528939 185.604306 157.528939"></polygon>
                    <polyline id="Fill-28" fill="#FFFFFF" points="203.922968 172.144294 198.904015 163.029911 198.904015 172.144294 195.686977 172.144294 195.686977 157.528939 198.904015 157.528939 203.922968 166.641063 203.922968 157.528939 207.141616 157.528939 207.141616 172.144294 203.922968 172.144294"></polyline>
                    <path d="M217.056817,164.877447 C217.056817,167.35148 218.985944,169.436576 221.30122,169.436576 C222.717309,169.436576 224.520512,168.983729 225.313097,166.771785 L221.603954,166.771785 L221.603954,164.341003 L228.787137,164.341003 L228.787137,164.836778 C228.787137,168.983729 225.461566,172.359259 221.30122,172.359259 C217.18564,172.359259 213.797589,168.963717 213.797589,164.836778 C213.797589,160.707902 217.18564,157.311715 221.30122,157.311715 C224.520512,157.311715 227.413881,159.419404 228.421279,162.450861 L224.883793,162.450861 C224.174622,160.904469 222.717309,160.322838 221.30122,160.322838 C218.985944,160.322838 217.056817,162.40761 217.056817,164.877447" id="Fill-30" fill="#FFFFFF"></path>
                </g>
            </g>
        </g>
    </g>
</svg>