<?xml version="1.0" encoding="UTF-8"?>
<svg width="173px" height="108px" viewBox="0 0 173 108" version="1.1" xmlns="http://www.w3.org/2000/svg" xmlns:xlink="http://www.w3.org/1999/xlink">
    <!-- Generator: Sketch 43.1 (39012) - http://www.bohemiancoding.com/sketch -->
    <title>logo</title>
    <desc>Created with Sketch.</desc>
    <defs></defs>
    <g id="Page-1" stroke="none" stroke-width="1" fill="none" fill-rule="evenodd">
        <g id="Home" transform="translate(-107.000000, -1576.000000)" fill-rule="nonzero">
            <g id="footer" transform="translate(-3.000000, 1540.000000)">
                <g id="logo" transform="translate(110.408661, 36.000000)">
                    <g id="Layer_1">
                        <g id="Group" transform="translate(48.249569, 0.000000)">
                            <g id="Shape" fill="#FFFFFF">
                                <polygon points="49.9360928 54.1086649 68.835047 21.256463 75.5909919 33.0179159 56.7059094 65.8990166 42.2065118 65.8990166 35.4507679 54.1086649"></polygon>
                                <polygon points="49.9360928 11.9267627 12.1552727 11.9441424 18.9395643 0.136815127 56.7059094 0.136815127 63.9582218 12.7628102 57.193029 24.566702"></polygon>
                                <polygon points="13.5945172 33.0179159 32.4602998 65.8990166 18.9395643 65.8990166 0.0504610079 33.0179159 7.27482881 20.4357744 20.8249162 20.4278928"></polygon>
                            </g>
                            <polygon id="Shape" fill="#0068A6" points="44.9748308 45.4674861 52.1211951 33.0179159 44.9748308 20.5653142 30.6720501 20.5653142 23.5168401 33.0179159 30.6720501 45.4674861"></polygon>
                        </g>
                        <g id="prime-focus" transform="translate(0.000000, 74.571317)">
                            <path d="M4.26646816,19.0890447 L0.138315432,19.0890447 L0.138315432,0.275853247 L3.24840225,0.275853247 L4.26646816,0.275853247 L7.15601424,0.275853247 C10.1842778,0.275853247 12.8812277,2.7391318 12.8812277,6.30683379 C12.8812277,10.1255319 10.1844789,12.3671174 7.15601424,12.3671174 L4.26646816,12.3671174 L4.26646816,19.0890447 Z M4.26646816,3.54082398 L4.26646816,9.10113624 L6.46825684,9.10113624 C7.67871791,9.10113624 8.94547014,8.1048311 8.94547014,6.30703588 C8.94547014,4.59108722 7.67871791,3.54082398 6.46825684,3.54082398 L4.26646816,3.54082398 Z" id="Shape" fill="#FFFFFF"></path>
                            <path d="M19.0732558,19.0890447 L14.9436958,19.0890447 L14.9436958,0.275853247 L18.0539836,0.275853247 L19.0732558,0.275853247 L21.9626008,0.275853247 C24.9912665,0.275853247 27.6866081,2.7391318 27.6866081,6.30683379 C27.6866081,9.48955378 25.7883896,11.5910907 23.4217482,12.1721003 L28.7885076,19.0890447 L23.5582543,19.0890447 L19.099793,12.3671174 L19.0730547,12.3671174 L19.0730547,19.0890447 L19.0732558,19.0890447 Z M19.0732558,3.54082398 L19.0732558,9.10113624 L21.2750445,9.10113624 C22.4855055,9.10113624 23.7510515,8.1048311 23.7510515,6.30703588 C23.7510515,4.59108722 22.4857066,3.54082398 21.2750445,3.54082398 L19.0732558,3.54082398 Z" id="Shape" fill="#FFFFFF"></path>
                            <polygon id="Shape" fill="#FFFFFF" points="30.1077312 19.0890447 30.1077312 0.275853247 34.2370902 0.275853247 34.2370902 19.0890447"></polygon>
                            <polygon id="Shape" fill="#FFFFFF" points="56.335795 19.0890447 54.1340063 6.11444383 50.4740755 19.0890447 46.427746 19.0890447 42.7664078 6.11444383 40.5658254 19.0890447 36.0243347 19.0890447 39.6575272 0.275853247 44.5558637 0.275853247 48.4644809 13.4725513 52.3437463 0.275853247 57.2438921 0.275853247 60.8768836 19.0890447"></polygon>
                            <polygon id="Shape" fill="#FFFFFF" points="73.5088219 19.0890447 62.6643291 19.0890447 62.6643291 0.275853247 73.5088219 0.275853247 73.5088219 4.03958282 66.7922808 4.03958282 66.7922808 7.77239258 73.2329952 7.77239258 73.2329952 11.5361221 66.7922808 11.5361221 66.7922808 15.3269318 73.5088219 15.3269318"></polygon>
                            <polygon id="Shape" fill="#0068A6" points="87.8180358 11.5361221 87.8180358 19.0890447 83.6900841 19.0890447 83.6900841 0.275853247 94.5333707 0.275853247 94.5333707 4.03958282 87.8182369 4.03958282 87.8182369 7.77239258 94.257544 7.77239258 94.257544 11.5361221 87.8180358 11.5361221"></polygon>
                            <path d="M106.505496,19.3661105 C101.329926,19.3661105 96.8726706,14.8829395 96.8726706,9.68194373 C96.8726706,4.48074592 101.329926,0.000202090291 106.505496,0.000202090291 C111.678252,0.000202090291 116.138121,4.48074592 116.138121,9.68194373 C116.138322,14.8831415 111.678453,19.3661105 106.505496,19.3661105 Z M106.505496,4.12163148 C103.614744,4.12163148 100.999416,6.75062407 100.999416,9.65506572 C100.999416,12.5595074 103.614744,15.215378 106.505496,15.215378 C109.394841,15.215378 112.008561,12.5595074 112.008561,9.65506572 C112.008561,6.75062407 109.395042,4.12163148 106.505496,4.12163148 Z" id="Shape" fill="#0068A6"></path>
                            <path d="M136.860104,12.6979392 C135.594558,16.5705955 131.961366,19.3661105 127.695501,19.3661105 C122.383826,19.3661105 118.063278,15.0215734 118.063278,9.68194373 C118.063278,4.34211198 122.383826,0.000202090291 127.695501,0.000202090291 C131.961366,0.000202090291 135.566413,2.7662119 136.83216,6.61199013 L132.237192,6.61199013 C131.465199,4.9245362 129.59392,3.87285833 127.695501,3.87285833 C124.667237,3.87285833 122.245913,6.50185092 122.245913,9.68194373 C122.245913,12.8917438 124.667438,15.4920396 127.695501,15.4920396 C129.621865,15.4920396 131.493345,14.3573026 132.263931,12.6979392 L136.860104,12.6979392 Z" id="Shape" fill="#0068A6"></path>
                            <path d="M154.252466,0.275853247 L154.252466,11.7568047 C154.252466,16.7644001 151.391266,19.3661105 146.519467,19.3661105 C141.648874,19.3661105 138.786267,16.7644001 138.786267,11.7568047 L138.786267,0.275853247 L142.912812,0.275853247 L142.912812,11.1489172 C142.912812,13.749415 143.712749,15.2151759 146.519266,15.2151759 C149.353928,15.2151759 150.124514,13.749415 150.124514,11.1489172 L150.124514,0.275853247 L154.252466,0.275853247 Z" id="Shape" fill="#0068A6"></path>
                            <path d="M167.738019,13.941805 C167.738019,10.2910439 156.921471,12.6427686 156.921471,5.69894619 C156.921471,1.82507741 160.499579,0.000202090291 163.912029,0.000202090291 C167.765763,0.000202090291 171.233097,1.71473612 171.371011,6.00288999 L167.38057,6.00288999 C167.159829,4.03958282 166.030789,3.40239213 163.966913,3.40239213 C162.809728,3.40239213 161.187336,3.95632162 161.187336,5.36549722 C161.187336,8.71372915 172.002477,6.30683379 172.002477,13.4725513 C172.002477,17.899137 168.068529,19.5314203 164.242539,19.5314203 C160.114386,19.5314203 156.343481,17.4834373 156.315336,12.8917438 L160.499579,12.8917438 C160.609346,15.1319147 162.369853,16.1563104 164.408397,16.1563104 C165.70048,16.1563104 167.738019,15.629461 167.738019,13.941805 Z" id="Shape" fill="#0068A6"></path>
                        </g>
                        <g id="goalkeeping" transform="translate(29.150781, 98.417972)" fill="#FFFFFF">
                            <path d="M2.07091172,4.82914958 C2.07091172,6.37817166 3.27614575,7.68367494 4.72142139,7.68367494 C5.60438851,7.68367494 6.72960867,7.40014226 7.2243678,6.0152175 L4.90919263,6.0152175 L4.90919263,4.49327552 L9.3929849,4.49327552 L9.3929849,4.80368621 C9.3929849,7.40014226 7.3176503,9.51360252 4.72142139,9.51360252 C2.15092559,9.51360252 0.0347798979,7.38761266 0.0347798979,4.80368621 C0.0347798979,2.21854721 2.15092559,0.0921531725 4.72142139,0.0921531725 C6.72960867,0.0921531725 8.53695712,1.41180277 9.16601088,3.30983478 L6.95638165,3.30983478 C6.51509913,2.3416202 5.60438851,1.97745349 4.72142139,1.97745349 C3.27594471,1.97745349 2.07091172,3.28275468 2.07091172,4.82914958 Z" id="Shape"></path>
                            <path d="M17.6991482,9.51360252 C15.1821291,9.51360252 13.0133109,7.33223992 13.0133109,4.80368621 C13.0133109,2.27331368 15.1821291,0.0921531725 17.6991482,0.0921531725 C20.2157654,0.0921531725 22.3845835,2.27351577 22.3845835,4.80368621 C22.3843825,7.33223992 20.2157654,9.51360252 17.6991482,9.51360252 Z M17.6991482,2.09789931 C16.2932764,2.09789931 15.0214982,3.37773712 15.0214982,4.79075243 C15.0214982,6.20396983 16.2934775,7.49411425 17.6991482,7.49411425 C19.104819,7.49411425 20.3767983,6.20396983 20.3767983,4.79075243 C20.3765973,3.37773712 19.104819,2.09789931 17.6991482,2.09789931 Z" id="Shape"></path>
                            <path d="M31.962324,9.37901039 L31.3053257,7.53473439 L27.8379911,7.53473439 L27.182199,9.37901039 L25.0262474,9.37901039 L28.7217624,0.228159938 L30.4223586,0.228159938 L34.1166673,9.37901039 L31.962324,9.37901039 Z M29.5655267,2.62353615 L28.4133672,5.88062537 L30.7172841,5.88062537 L29.5655267,2.62353615 Z" id="Shape"></path>
                            <polygon id="Shape" points="37.669645 0.228159938 39.6778323 0.228159938 39.6778323 7.5492849 42.9447302 7.5492849 42.9447302 9.37921248 37.669645 9.37921248"></polygon>
                            <polygon id="Shape" points="48.9045572 9.37901039 46.8977772 9.37901039 46.8977772 0.228159938 48.9045572 0.228159938 48.9045572 4.31907369 51.7836492 0.228159938 54.354145 0.228159938 50.8602731 4.8038883 54.4880375 9.37921248 51.7838502 9.37921248 48.9047582 5.2887029 48.9047582 9.37901039"></polygon>
                            <polygon id="Shape" points="63.1140553 9.37901039 57.8393722 9.37901039 57.8393722 0.228159938 63.1140553 0.228159938 63.1140553 2.05808752 59.8473585 2.05808752 59.8473585 3.8754855 62.9801628 3.8754855 62.9801628 5.70399845 59.8473585 5.70399845 59.8473585 7.5492849 63.1140553 7.5492849"></polygon>
                            <polygon id="Shape" points="72.6755116 9.37901039 67.4018337 9.37901039 67.4018337 0.228159938 72.6755116 0.228159938 72.6755116 2.05808752 69.40982 2.05808752 69.40982 3.8754855 72.5426243 3.8754855 72.5426243 5.70399845 69.40982 5.70399845 69.40982 7.5492849 72.6755116 7.5492849"></polygon>
                            <path d="M78.9722815,9.37901039 L76.9640942,9.37901039 L76.9640942,0.228159938 L78.475914,0.228159938 L78.9724825,0.228159938 L80.3781533,0.228159938 C81.8515745,0.228159938 83.1631586,1.425747 83.1631586,3.16230887 C83.1631586,5.01911446 81.8517756,6.10918948 80.3781533,6.10918948 L78.9724825,6.10918948 L78.9724825,9.37901039 L78.9722815,9.37901039 Z M78.9722815,1.81557917 L78.9722815,4.52015353 L80.0424167,4.52015353 C80.6316646,4.52015353 81.2476507,4.03675355 81.2476507,3.16210678 C81.2476507,2.32727179 80.6316646,1.81557917 80.0424167,1.81557917 L78.9722815,1.81557917 Z" id="Shape"></path>
                            <polygon id="Shape" points="86.8482195 9.37901039 86.8482195 0.228159938 88.8558037 0.228159938 88.8558037 9.37901039"></polygon>
                            <polygon id="Shape" points="98.2833674 9.37901039 95.1503621 3.67238476 95.1503621 9.37901039 93.1423758 9.37901039 93.1423758 0.228159938 95.1503621 0.228159938 98.2833674 5.93337093 98.2833674 0.228159938 100.29256 0.228159938 100.29256 9.37901039 98.2833674 9.37901039"></polygon>
                            <path d="M106.481974,4.82914958 C106.481974,6.37817166 107.686203,7.68367494 109.13168,7.68367494 C110.015451,7.68367494 111.141073,7.40014226 111.635833,6.0152175 L109.320456,6.0152175 L109.320456,4.49327552 L113.80445,4.49327552 L113.80445,4.80368621 C113.80445,7.40014226 111.728713,9.51360252 109.13168,9.51360252 C106.562591,9.51360252 104.447451,7.38761266 104.447451,4.80368621 C104.447451,2.21854721 106.562591,0.0921531725 109.13168,0.0921531725 C111.141073,0.0921531725 112.947216,1.41180277 113.576068,3.30983478 L111.367846,3.30983478 C110.925358,2.3416202 110.015451,1.97745349 109.13168,1.97745349 C107.686203,1.97745349 106.481974,3.28275468 106.481974,4.82914958 Z" id="Shape"></path>
                        </g>
                    </g>
                </g>
            </g>
        </g>
    </g>
</svg>