<?xml version="1.0" encoding="UTF-8"?>
<svg width="34px" height="32px" viewBox="0 0 34 32" version="1.1" xmlns="http://www.w3.org/2000/svg" xmlns:xlink="http://www.w3.org/1999/xlink">
    <!-- Generator: Sketch 43.1 (39012) - http://www.bohemiancoding.com/sketch -->
    <title>cart</title>
    <desc>Created with Sketch.</desc>
    <defs></defs>
    <g id="Page-1" stroke="none" stroke-width="1" fill="none" fill-rule="evenodd">
        <g id="Home" transform="translate(-930.000000, -1639.000000)" fill-rule="nonzero" fill="#FFFFFF">
            <g id="footer" transform="translate(-3.000000, 1540.000000)">
                <g id="cart" transform="translate(933.000000, 99.000000)">
                    <g id="Layer_1">
                        <g id="Icon-Cart">
                            <path d="M28.6875,26.0977778 L7.225,26.0977778 C6.87083333,26.0977778 6.5875,25.9555556 6.44583333,25.6711111 C6.23333333,25.3866667 6.23333333,25.0311111 6.375,24.7466667 L8.21666667,20.0533333 L6.375,2.56 L0.425,2.56 L0.425,0.568888889 L7.225,0.568888889 C7.72083333,0.568888889 8.14583333,0.924444444 8.21666667,1.42222222 L10.2,19.9822222 C10.2,20.1244444 10.2,20.2666667 10.1291667,20.48 L8.7125,24.0355556 L28.6875,24.0355556 L28.6875,26.0977778" id="Fill-110"></path>
                            <path d="M9.42083333,21.1911111 L8.99583333,19.2711111 L31.5916667,14.5777778 L31.5916667,6.54222222 L8.21666667,6.54222222 L8.21666667,4.55111111 L32.5833333,4.55111111 C33.15,4.55111111 33.575,4.97777778 33.575,5.54666667 L33.575,15.36 C33.575,15.8577778 33.2208333,16.2133333 32.7958333,16.2844444 L9.42083333,21.1911111" id="Fill-111"></path>
                            <path d="M29.6791667,32 C27.5541667,32 25.7833333,30.2222222 25.7833333,28.0888889 C25.7833333,25.9555556 27.5541667,24.1777778 29.6791667,24.1777778 C31.8041667,24.1777778 33.575,25.9555556 33.575,28.0888889 C33.575,30.2222222 31.8041667,32 29.6791667,32 L29.6791667,32 Z M29.6791667,26.0977778 C28.6166667,26.0977778 27.6958333,26.9511111 27.6958333,28.0888889 C27.6958333,29.2266667 28.5458333,30.08 29.6791667,30.08 C30.8125,30.08 31.6625,29.2266667 31.6625,28.0888889 C31.6625,26.9511111 30.7416667,26.0977778 29.6791667,26.0977778 L29.6791667,26.0977778 Z" id="Fill-112"></path>
                            <path d="M6.30416667,32 C4.17916667,32 2.40833333,30.2222222 2.40833333,28.0888889 C2.40833333,25.9555556 4.17916667,24.1777778 6.30416667,24.1777778 C8.42916667,24.1777778 10.2,25.9555556 10.2,28.0888889 C10.2,30.2222222 8.42916667,32 6.30416667,32 L6.30416667,32 Z M6.30416667,26.0977778 C5.24166667,26.0977778 4.32083333,26.9511111 4.32083333,28.0888889 C4.32083333,29.2266667 5.17083333,30.08 6.30416667,30.08 C7.4375,30.08 8.2875,29.2266667 8.2875,28.0888889 C8.2875,26.9511111 7.36666667,26.0977778 6.30416667,26.0977778 L6.30416667,26.0977778 Z" id="Fill-113"></path>
                        </g>
                    </g>
                </g>
            </g>
        </g>
    </g>
</svg>