<?xml version="1.0" encoding="UTF-8"?>
<svg width="29px" height="24px" viewBox="0 0 29 24" version="1.1" xmlns="http://www.w3.org/2000/svg" xmlns:xlink="http://www.w3.org/1999/xlink">
    <!-- Generator: Sketch 43.2 (39069) - http://www.bohemiancoding.com/sketch -->
    <title>twitter</title>
    <desc>Created with Sketch.</desc>
    <defs></defs>
    <g id="Page-1" stroke="none" stroke-width="1" fill="none" fill-rule="evenodd">
        <g id="Home" transform="translate(-142.000000, -1724.000000)" fill-rule="nonzero" fill="#FFFFFF">
            <g id="footer" transform="translate(-3.000000, 1540.000000)">
                <g id="social" transform="translate(91.000000, 182.211915)">
                    <g id="twitter" transform="translate(54.344252, 1.848444)">
                        <path d="M28.4164988,2.7404256 C27.3696694,3.20611884 26.2512618,3.51956621 25.0702234,3.6539008 C26.2691563,2.92849403 27.1996714,1.79112784 27.6291399,0.429870683 C26.5017851,1.10154362 25.2581159,1.58514814 23.9339214,1.84486168 C22.8691974,0.716451138 21.3571104,0 19.6839727,0 C15.9261234,0 13.1614199,3.51061058 14.0114097,7.15555574 C9.17094184,6.91375348 4.87625688,4.59424292 2.00418631,1.06572107 C0.483152058,3.68076772 1.21682741,7.11077754 3.80258564,8.84817155 C2.84522879,8.82130464 1.95050275,8.55263546 1.16314384,8.12276478 C1.10051302,10.8273678 3.03312125,13.3528581 5.83361374,13.9081077 C5.01046579,14.1319987 4.11573975,14.1857325 3.2031192,14.0066197 C3.94574181,16.3261303 6.09308429,18.0097905 8.64305348,18.0545687 C6.19150415,19.9710755 3.1136466,20.8308168 0.0178945207,20.4725913 C2.5947055,22.1293845 5.65466853,23.0876379 8.94726033,23.0876379 C19.7555508,23.0876379 25.8665296,13.9439303 25.4996919,5.74952038 C26.6538885,4.93455721 27.6380872,3.91361434 28.4164988,2.7404256 Z" id="Shape"></path>
                    </g>
                </g>
            </g>
        </g>
    </g>
</svg>